<svg id="Layer_1" data-name="Layer 1" xmlns="http://www.w3.org/2000/svg" viewBox="0 0 210.62578 82.64038"><defs><style>.cls-1,.cls-2{fill:#2b68c5;}.cls-2,.cls-3{fill-rule:evenodd;}.cls-3,.cls-4{fill:#fff;}</style></defs><polygon class="cls-1" points="131.334 11.662 139.069 11.662 139.069 39.716 132.255 39.716 132.255 21.2 125.242 31.901 124.601 31.901 117.587 21.2 117.587 39.716 110.774 39.716 110.774 11.662 118.509 11.662 124.921 21.28 131.334 11.662 131.334 11.662"/><path class="cls-1" d="M1011.86479,516.67343h6.81308v22.04224h-6.81308v-2.52484a7.7468,7.7468,0,0,1-6.3323,3.0458,7.30611,7.30611,0,0,1-5.75119-2.36435,9.2983,9.2983,0,0,1-2.10389-6.41253V516.67343h6.813V528.937a4.59363,4.59363,0,0,0,.74155,2.86557,3.22069,3.22069,0,0,0,2.66513.94193q3.96753,0,3.96765-4.36847V516.67343Z" transform="translate(-854 -499)"/><polygon class="cls-1" points="168.685 39.716 168.685 8.857 175.499 8.857 175.499 39.716 168.685 39.716 168.685 39.716"/><path class="cls-1" d="M1060.4977,506.25328a4.13661,4.13661,0,0,1,2.96588,1.10213,3.67519,3.67519,0,0,1,1.1622,2.78531,3.72209,3.72209,0,0,1-1.1622,2.82557,4.48364,4.48364,0,0,1-5.91138-.02011,3.70807,3.70807,0,0,1-1.18234-2.80546,3.645,3.645,0,0,1,1.18234-2.78531,4.15335,4.15335,0,0,1,2.9455-1.10213Zm-3.40668,32.46239V516.67343h6.81332v22.04224Z" transform="translate(-854 -499)"/><path class="cls-1" d="M961.50761,545.81247a10.4527,10.4527,0,0,1,7.33379,2.52512,9.118,9.118,0,0,1,2.76576,7.09341,9.34375,9.34375,0,0,1-2.7856,7.17392,10.276,10.276,0,0,1-7.31395,2.60474h-5.21008v8.6567h-6.81308V545.81247Zm-.28035,12.905q3.48661,0,3.48664-3.20654,0-3.206-3.48664-3.206h-4.92973v6.41254Z" transform="translate(-854 -499)"/><polygon class="cls-1" points="121.214 74.866 121.214 44.007 128.027 44.007 128.027 74.866 121.214 74.866 121.214 74.866"/><path class="cls-1" d="M1001.82506,551.82416h6.81335l-.04025,22.0422h-6.81308v-2.36462a7.64089,7.64089,0,0,1-6.21213,2.88565,9.04761,9.04761,0,0,1-7.09341-3.24625,13.47792,13.47792,0,0,1,.01986-16.59173,9.02448,9.02448,0,0,1,7.03359-3.24652,7.53414,7.53414,0,0,1,6.29207,3.00613v-2.48486Zm-7.97528,14.688a4.69233,4.69233,0,0,0,6.65265,0,5.71695,5.71695,0,0,0,0-7.314,4.64565,4.64565,0,0,0-6.65265,0,5.71688,5.71688,0,0,0,0,7.314Z" transform="translate(-854 -499)"/><path class="cls-1" d="M1022.78528,574.38739a13.32083,13.32083,0,0,1-7.51436-2.00381,7.97632,7.97632,0,0,1-3.62692-5.49042h6.89328q.56082,2.36453,4.32821,2.36468,3.00573,0,3.00586-1.52307a1.00479,1.00479,0,0,0-.76167-.942,32.34537,32.34537,0,0,0-3.687-.94165q-4.84936-1.0422-6.853-2.56507a5.15779,5.15779,0,0,1-2.00382-4.3685,6.54112,6.54112,0,0,1,2.70511-5.57062,12.32586,12.32586,0,0,1,7.4744-2.00381q8.81686,0,9.93911,6.89328h-6.89328q-.48092-1.76331-3.32647-1.76343-3.00573,0-3.00559,1.563a.68678.68678,0,0,0,.46094.70133,20.72538,20.72538,0,0,0,2.30427.58105q.36057.08043.521.12048a26.21045,26.21045,0,0,1,7.8151,2.66486,5.107,5.107,0,0,1,2.32442,4.669,6.46112,6.46112,0,0,1-2.82559,5.65081,12.47074,12.47074,0,0,1-7.274,1.96387Z" transform="translate(-854 -499)"/><path class="cls-1" d="M1053.00346,566.97308l1.1622,5.49073a11.11762,11.11762,0,0,1-3.00585,1.32266,13.23628,13.23628,0,0,1-3.88743.60092,8.53208,8.53208,0,0,1-5.99163-2.22406q-2.42485-2.22459-2.42446-6.83347V525.903h-3.76724v-6.41221h3.76724V509.33939l6.81278-1.48284v11.63426h7.41432V525.903h-7.41432v39.02627q0,3.12561,2.80546,3.12607a19.39271,19.39271,0,0,0,4.52893-1.08228Z" transform="translate(-854 -499)"/><path class="cls-2" d="M868.87422,499h52.22551A14.91764,14.91764,0,0,1,935.974,513.87422v52.89195a14.91763,14.91763,0,0,1-14.87424,14.87421H868.87422A14.91762,14.91762,0,0,1,854,566.76617V513.87422A14.91763,14.91763,0,0,1,868.87422,499Z" transform="translate(-854 -499)"/><path class="cls-3" d="M894.93652,579.09006c20.59655,0,37.29345-17.356,37.29345-38.76548s-16.6969-38.76548-37.29345-38.76548-37.29316,17.356-37.29316,38.76548,16.69664,38.76548,37.29316,38.76548Z" transform="translate(-854 -499)"/><path class="cls-1" d="M881.27948,533.19006c.16724,0,.33336-.00311.49832-.00848a6.13206,6.13206,0,0,1-.47621-1.5639,5.879,5.879,0,0,1,0-1.88758,7.82337,7.82337,0,0,1,3.888-5.2027,13.46367,13.46367,0,0,0-3.91013-.55786c-4.52693,0-8.19608,2.06446-8.19608,4.61029,0,2.54636,3.66915,4.61023,8.19608,4.61023Z" transform="translate(-854 -499)"/><path class="cls-1" d="M894.71,522.94537a7.02609,7.02609,0,1,0-7.026-7.02621,7.026,7.026,0,0,0,7.026,7.02621Zm0,14.05191c6.20872,0,11.24191-2.831,11.24191-6.32351,0-3.49228-5.03319-6.32325-11.24191-6.32325-6.20845,0-11.24163,2.831-11.24163,6.32325,0,3.49255,5.03318,6.32351,11.24163,6.32351Z" transform="translate(-854 -499)"/><path class="cls-1" d="M881.27921,522.94537a5.12249,5.12249,0,1,0-5.1225-5.12249,5.12243,5.12243,0,0,0,5.1225,5.12249Z" transform="translate(-854 -499)"/><path class="cls-1" d="M908.59384,522.94537a5.12249,5.12249,0,1,0-5.1225-5.12249,5.12242,5.12242,0,0,0,5.1225,5.12249Z" transform="translate(-854 -499)"/><path class="cls-1" d="M908.59384,533.19006c4.52666,0,8.19611-2.06387,8.19611-4.61023,0-2.54583-3.66945-4.61029-8.19611-4.61029a13.28486,13.28486,0,0,0-4.21058.65451,7.742,7.742,0,0,1,3.7355,5.106,5.879,5.879,0,0,1,0,1.88758,6.13674,6.13674,0,0,1-.4666,1.54177q.46348.03018.94168.03061Z" transform="translate(-854 -499)"/><path class="cls-1" d="M893.23262,571.59811a2.26232,2.26232,0,1,1,3.19209.216,2.26238,2.26238,0,0,1-3.19209-.216Z" transform="translate(-854 -499)"/><path class="cls-1" d="M885.03169,571.01248a1.37214,1.37214,0,1,1,1.93608.13095,1.37251,1.37251,0,0,1-1.93608-.13095Z" transform="translate(-854 -499)"/><path class="cls-1" d="M904.68884,571.01248a1.37214,1.37214,0,1,0-1.93606.13095,1.372,1.372,0,0,0,1.93606-.13095Z" transform="translate(-854 -499)"/><path class="cls-1" d="M880.85542,565.00641a2.19552,2.19552,0,1,1,3.0977.20947,2.19587,2.19587,0,0,1-3.0977-.20947Z" transform="translate(-854 -499)"/><path class="cls-1" d="M887.96753,565.00641a2.19552,2.19552,0,1,1,3.09772.20947,2.19524,2.19524,0,0,1-3.09772-.20947Z" transform="translate(-854 -499)"/><path class="cls-1" d="M909.01791,565.00641a2.19541,2.19541,0,1,0-3.0977.20947,2.19559,2.19559,0,0,0,3.0977-.20947Z" transform="translate(-854 -499)"/><path class="cls-1" d="M901.59993,565.00641a2.1954,2.1954,0,1,0-3.0977.20947,2.19521,2.19521,0,0,0,3.0977-.20947Z" transform="translate(-854 -499)"/><path class="cls-1" d="M867.35287,546.28217a2.82882,2.82882,0,0,0,.48586-.01758c.00764-.00568.07539-.16724.19077-.44477a14.45482,14.45482,0,0,1,.771-1.61,4.85174,4.85174,0,0,1,2.255-2.20795,3.25979,3.25979,0,0,1,1.47345-.26416,3.3208,3.3208,0,0,1,1.42583.4212,5.05911,5.05911,0,0,1,2.09311,2.52369l.2072.49154c.27922.67066.41755,1.00177.54481,1.0698a5.54452,5.54452,0,0,0,1.6098.08645l.97541-.00027c.84274.00339,3.80778.02719,4.9337-.03913a7.35007,7.35007,0,0,0,.11509,1.19111c.74295-2.3638,2.1274-5.48758,5.03858-5.60636a4.0897,4.0897,0,0,1,1.0715.15109,3.89569,3.89569,0,0,1,1.97121,1.641,10.34846,10.34846,0,0,1,.8569,1.63076,4.84881,4.84881,0,0,0,.46178,1.057,62.58248,62.58248,0,0,0,7.24308-.04367,7.75461,7.75461,0,0,0,.1372,1.10638c.08305-.26419.146-.686.23471-.93631.705-1.98425,2.33291-4.70153,4.66667-4.78714,2.34454-.08618,3.6689,2.34992,4.47279,4.14341a2.51215,2.51215,0,0,0,.22509.45865c-.2506.00369,5.75488.0961,8.06909-.06492a7.15631,7.15631,0,0,0,.06916,1.224c.591-1.96811,1.24071-4.4291,3.28676-5.383a2.27445,2.27445,0,0,1,1.41648-.2486c1.30563.292,1.25775,1.9151,1.103,2.93952-1.88447-.64035-3.723,1.76712-5.59559,7.6972a1.03147,1.03147,0,0,0-.15364.16159,8.15088,8.15088,0,0,0-.55588.92154c-.896,1.62735-2.03414,3.69409-4.66355,2.719a4.2083,4.2083,0,0,1-2.28471-2.46557c-.41954-.84076-.8334-1.669-1.87343-1.72458-.9306-.0499-3.23518-.11453-5.14175-.02811a14.96007,14.96007,0,0,0-1.99561.18824c2.07328-4.28968,4.10912-5.72825,6.09053-3.57279a10.67581,10.67581,0,0,0-.6616-1.44565c-1.47856-2.1484-3.308-1.49048-4.90084,1.88871a26.146,26.146,0,0,0-1.4261,4.33273c-.78717,1.5744-1.95619,3.56064-4.77014,2.89248-1.58993-.37957-2.22775-1.75292-2.78985-2.96362-.30871-.66525-.58423-1.2583-.77074-1.28891-.39488-.06491-2.58208-.08417-4.65364-.06009-1.275.015-2.48174.04367-3.15354.08478,1.7311-4.04,3.42395-5.60977,6.18888-3.44043q-3.08607-6.71681-6.50922,3.4957l-.2588.6514c-.64685,1.63443-1.63218,4.123-4.78176,3.58752-1.73677-.2951-2.32156-1.51257-2.89218-2.70056-.38042-.7923-.75232-1.56671-1.47969-1.67386h-.0034a44.63826,44.63826,0,0,0-4.909-.03659c-1.38868.03177-2.73146.01929-4.11107.01929h-.29a1.55111,1.55111,0,0,1-1.54686-1.5466V547.831a1.55276,1.55276,0,0,1,1.19594-1.50634,8.16363,8.16363,0,0,1,1.29231-.04251Zm1.33455.00964c1.56868-1.59079,3.67344-.80875,3.67344,2.124q-.10888-.18791-.22735-.36426a4.23567,4.23567,0,0,0-1.25575-1.39181,4.05408,4.05408,0,0,0-2.19034-.36792Zm57.86419.591a1.54178,1.54178,0,0,1,.43853,1.07633v2.49759a1.55113,1.55113,0,0,1-1.54687,1.5466c-1.64382,0-4.37329-.08222-5.2784.04138a2.16936,2.16936,0,0,0-.82742.29056c1.33566-3.74826,2.45592-5.78382,4.71145-5.97431a3.88284,3.88284,0,0,1,2.50271.52185Z" transform="translate(-854 -499)"/><path class="cls-3" d="M868.68742,546.29181c1.56868-1.59079,3.67344-.80875,3.67344,2.124q-.10888-.18791-.22735-.36426c-.63865-1.32406-1.68237-1.86435-3.44609-1.75973Z" transform="translate(-854 -499)"/><rect class="cls-4" x="863.06967" y="554.03052" width="0.00039" height="0.00029" transform="translate(-986.32179 302.08331) rotate(-46.63658)"/></svg>